name analog
datacolumns 19
datarows 56
range 0.6135 0.641
endheader
time	ground_force_vx	ground_force_vy	ground_force_vz	ground_force_px	ground_force_py	ground_force_pz	l_ground_force_vx	l_ground_force_vy	l_ground_force_vz	l_ground_force_px	l_ground_force_py	l_ground_force_pz	ground_torque_x	ground_torque_y	ground_torque_z	l_ground_torque_x	l_ground_torque_y	l_ground_torque_z
0.6135	-0.0	-0.0	-0.0	2.4826548099517822	42.5420036315918	-408.4827575683594	-1.602089762687683	-57.055809020996094	-431.9005737304688	-0.0	-0.0	-0.0	-0.0	-0.0	-0.0	93125.234375	27978.076171875	-7745.77001953125
0.614	-0.0	-0.0	-0.0	1.276044845581055	42.567264556884766	-407.5894775390625	-1.7846524715423584	-56.46353530883789	-434.6732177734375	-0.0	-0.0	-0.0	-0.0	-0.0	-0.0	93777.7578125	27725.658203125	-7712.556640625
0.6145	-0.0	-0.0	-0.0	1.169653058052063	43.129207611083984	-411.43499755859375	-2.0717668533325195	-56.08942413330078	-436.0074462890625	-0.0	-0.0	-0.0	-0.0	-0.0	-0.0	94150.25	27563.033203125	-7726.64013671875
0.615	-0.0	-0.0	-0.0	0.3097965121269226	43.19099426269531	-411.6408996582031	-1.700797200202942	-55.59088897705078	-436.76861572265625	-0.0	-0.0	-0.0	-0.0	-0.0	-0.0	94189.2734375	27542.3828125	-7633.87451171875
0.6155	-0.0	-0.0	-0.0	0.4412496984004974	43.190879821777344	-413.7978515625	-1.8579063415527344	-55.019412994384766	-435.5567626953125	-0.0	-0.0	-0.0	-0.0	-0.0	-0.0	94409.6953125	27229.208984375	-7685.96826171875
0.616	-0.0	-0.0	-0.0	0.046990193426609	43.19083023071289	-412.5708312988281	-1.4143964052200315	-54.707855224609375	-434.305419921875	-0.0	-0.0	-0.0	-0.0	-0.0	-0.0	94402.8046875	27253.4453125	-7650.89599609375
0.6165	-0.0	-0.0	-0.0	0.0516435503959655	43.26578140258789	-414.4288024902344	-1.685504913330078	-54.36443710327149	-434.2375183105469	-0.0	-0.0	-0.0	-0.0	-0.0	-0.0	94141.6015625	26991.166015625	-7518.37109375
0.617	-0.0	-0.0	-0.0	0.0238398909568786	43.32199096679688	-415.5618896484375	-2.0499913692474365	-53.69478988647461	-433.7734375	-0.0	-0.0	-0.0	-0.0	-0.0	-0.0	94179.625	26786.71484375	-7506.07275390625
0.6175	-0.0	-0.0	-0.0	0.0045703053474426	43.44879150390625	-415.4890747070313	-1.998387098312378	-53.0347900390625	-431.3674011230469	-0.0	-0.0	-0.0	-0.0	-0.0	-0.0	94044.203125	26669.462890625	-7563.58935546875
0.618	-0.0	-0.0	-0.0	-0.0847178846597671	43.26158905029297	-416.1603088378906	-2.614612340927124	-52.68154144287109	-430.5224914550781	-0.0	-0.0	-0.0	-0.0	-0.0	-0.0	93659.2578125	26521.94140625	-7560.7998046875
0.6185	-0.0	-0.0	-0.0	0.2208188027143478	43.6942024230957	-416.0110168457031	-2.6705925464630127	-51.719268798828125	-429.2727966308594	-0.0	-0.0	-0.0	-0.0	-0.0	-0.0	93542.640625	26576.677734375	-7629.2861328125
0.619	-0.0	-0.0	-0.0	0.2676315307617187	43.45325469970703	-414.2281494140625	-2.7125651836395264	-51.49611282348633	-426.4977416992188	-0.0	-0.0	-0.0	-0.0	-0.0	-0.0	92899.4609375	26144.873046875	-7501.34130859375
0.6195	-0.0	-0.0	-0.0	0.4164739549160003	43.84357833862305	-411.992919921875	-2.983095169067383	-51.0035285949707	-426.4798278808594	-0.0	-0.0	-0.0	-0.0	-0.0	-0.0	92983.0078125	25943.3984375	-7577.89697265625
0.62	-0.0	-0.0	-0.0	0.4885499775409698	44.518531799316406	-407.4013977050781	-3.1558873653411865	-50.6458625793457	-425.2492370605469	-0.0	-0.0	-0.0	-0.0	-0.0	-0.0	92920.9296875	25905.951171875	-7554.22509765625
0.6205	-0.0	-0.0	-0.0	0.0342166274785995	45.16835403442383	-408.0418395996094	-3.007413625717163	-50.078399658203125	-423.3204956054688	-0.0	-0.0	-0.0	-0.0	-0.0	-0.0	92617.578125	25561.787109375	-7387.1044921875
0.621	-0.0	-0.0	-0.0	-0.3527483344078064	44.06885147094727	-408.1075439453125	-2.6699535846710205	-49.66591262817383	-422.8226318359375	-0.0	-0.0	-0.0	-0.0	-0.0	-0.0	92292.5859375	25527.869140625	-7283.646484375
0.6215	-0.0	-0.0	-0.0	-0.3488100171089172	43.55424499511719	-405.8196411132813	-2.471188545227051	-49.32555389404297	-420.5447998046875	-0.0	-0.0	-0.0	-0.0	-0.0	-0.0	92149.7421875	25067.3203125	-7267.8525390625
0.622	-0.0	-0.0	-0.0	0.1705443263053894	42.592533111572266	-405.7725830078125	-1.9897518157958984	-48.75357055664063	-419.314697265625	-0.0	-0.0	-0.0	-0.0	-0.0	-0.0	91714.9453125	24780.580078125	-7195.27880859375
0.6225	-0.0	-0.0	-0.0	0.0426580645143985	42.15478897094727	-403.6230163574219	-1.6896216869354248	-48.52661895751953	-418.0847778320313	-0.0	-0.0	-0.0	-0.0	-0.0	-0.0	91745.3125	24240.146484375	-7086.33544921875
0.623	-0.0	-0.0	-0.0	-0.0038167089223861	41.74806213378906	-403.0387878417969	-0.9132850766181946	-48.0429801940918	-417.05364990234375	-0.0	-0.0	-0.0	-0.0	-0.0	-0.0	91585.7265625	24017.08984375	-6952.88671875
0.6235	-0.0	-0.0	-0.0	-0.0539527982473373	41.18571853637695	-403.2722778320313	-0.308506578207016	-47.424800872802734	-416.9026489257813	-0.0	-0.0	-0.0	-0.0	-0.0	-0.0	91846.9453125	23972.431640625	-6801.35546875
0.624	-0.0	-0.0	-0.0	0.0538692474365234	41.61649703979492	-402.3971862792969	-0.2237415164709091	-46.890995025634766	-417.752197265625	-0.0	-0.0	-0.0	-0.0	-0.0	-0.0	91746.1484375	23617.9609375	-6807.76220703125
0.6245	-0.0	-0.0	-0.0	0.1283739060163498	41.3065071105957	-403.54400634765625	0.6749605536460876	-46.8143310546875	-417.0540466308594	-0.0	-0.0	-0.0	-0.0	-0.0	-0.0	92068.6953125	23176.931640625	-6609.7275390625
0.625	-0.0	-0.0	-0.0	0.3104616701602936	40.72904586791992	-403.1619262695313	1.550551414489746	-46.495731353759766	-419.8176879882813	-0.0	-0.0	-0.0	-0.0	-0.0	-0.0	92187.984375	23059.009765625	-6566.45947265625
0.6255000000000001	-0.0	-0.0	-0.0	0.1749149560928344	40.23712539672852	-402.9921875	2.271451711654663	-46.3614616394043	-418.8440856933594	-0.0	-0.0	-0.0	-0.0	-0.0	-0.0	92311.9453125	22774.94921875	-6373.720703125
0.626	-0.0	-0.0	-0.0	0.3276644945144653	40.01270294189453	-399.8132934570313	2.58357310295105	-46.32290649414063	-419.35986328125	-0.0	-0.0	-0.0	-0.0	-0.0	-0.0	92843.8125	22412.998046875	-6221.49072265625
0.6265000000000001	-0.0	-0.0	-0.0	0.3930705785751343	39.66303253173828	-399.7864379882813	3.275146484375	-46.32294464111328	-420.0153198242188	-0.0	-0.0	-0.0	-0.0	-0.0	-0.0	92511.46875	22332.71484375	-6179.556640625
0.627	-0.0	-0.0	-0.0	0.5319563150405884	39.17116165161133	-401.7225646972656	3.825161218643189	-46.188724517822266	-421.0490417480469	-0.0	-0.0	-0.0	-0.0	-0.0	-0.0	93085.7890625	22105.119140625	-6106.7431640625
0.6275000000000001	-0.0	-0.0	-0.0	0.1418883651494979	39.21415328979492	-398.9231262207031	3.949357509613037	-46.05804061889648	-420.5599365234375	-0.0	-0.0	-0.0	-0.0	-0.0	-0.0	93223.40625	21904.833984375	-6194.419921875
0.628	-0.0	-0.0	-0.0	0.9015592336654664	39.62633514404297	-399.0434265136719	3.633764266967773	-46.333133697509766	-420.908935546875	-0.0	-0.0	-0.0	-0.0	-0.0	-0.0	93204.59375	21598.876953125	-6118.8466796875
0.6285000000000001	-0.0	-0.0	-0.0	1.07670795917511	39.62309646606445	-396.62109375	3.186952352523804	-46.5422248840332	-420.7277221679688	-0.0	-0.0	-0.0	-0.0	-0.0	-0.0	93213.5859375	21694.8203125	-6301.66015625
0.629	-0.0	-0.0	-0.0	1.3721601963043213	39.34653472900391	-396.7796936035156	2.7170772552490234	-46.49650573730469	-420.1975708007813	-0.0	-0.0	-0.0	-0.0	-0.0	-0.0	93284.03125	21371.35546875	-6428.3310546875
0.6295000000000001	-0.0	-0.0	-0.0	1.4704976081848145	39.30945587158203	-394.50201416015625	2.5330264568328857	-46.94456100463867	-420.2352600097656	-0.0	-0.0	-0.0	-0.0	-0.0	-0.0	93171.984375	21218.9375	-6450.40869140625
0.63	-0.0	-0.0	-0.0	1.6057891845703125	39.35538101196289	-394.1943054199219	2.355489015579224	-47.12734222412109	-420.4029541015625	-0.0	-0.0	-0.0	-0.0	-0.0	-0.0	93387.2109375	21060.65625	-6614.17431640625
0.6305000000000001	-0.0	-0.0	-0.0	1.6057891845703125	39.65737915039063	-392.7249145507813	2.303421974182129	-47.3861083984375	-421.9798278808594	-0.0	-0.0	-0.0	-0.0	-0.0	-0.0	93627.9296875	20909.765625	-6713.4482421875
0.631	-0.0	-0.0	-0.0	2.184281349182129	39.798099517822266	-391.8367919921875	2.618458747863769	-47.038719177246094	-422.30474853515625	-0.0	-0.0	-0.0	-0.0	-0.0	-0.0	93574.8359375	20640.443359375	-6668.1669921875
0.6315000000000001	-0.0	-0.0	-0.0	2.7735495567321777	40.0654525756836	-391.4946899414063	2.9274559020996094	-47.02985382080078	-421.0539855957031	-0.0	-0.0	-0.0	-0.0	-0.0	-0.0	93511.796875	20508.94921875	-6746.513671875
0.632	-0.0	-0.0	-0.0	3.346714973449707	40.6002197265625	-391.1520080566406	2.973241090774536	-46.71932601928711	-420.3785400390625	-0.0	-0.0	-0.0	-0.0	-0.0	-0.0	93285.3984375	20428.798828125	-6719.5625
0.6325000000000001	-0.0	-0.0	-0.0	3.8768115043640137	40.63833999633789	-389.5777893066406	3.1506240367889404	-46.71663665771485	-420.705810546875	-0.0	-0.0	-0.0	-0.0	-0.0	-0.0	93159.8671875	20286.849609375	-6622.84521484375
0.633	-0.0	-0.0	-0.0	4.378773212432861	40.42188262939453	-390.2638549804688	2.8763372898101807	-46.46259307861328	-418.6328125	-0.0	-0.0	-0.0	-0.0	-0.0	-0.0	93006.296875	20068.58984375	-6730.92236328125
0.6335000000000001	-0.0	-0.0	-0.0	4.016915321350098	40.01710891723633	-388.8414306640625	2.967802047729492	-45.88710784912109	-417.0353088378906	-0.0	-0.0	-0.0	-0.0	-0.0	-0.0	92487.2421875	20166.689453125	-6713.6171875
0.634	-0.0	-0.0	-0.0	4.05553150177002	40.32796478271485	-389.5574951171875	2.881802797317505	-45.88957977294922	-415.3107604980469	-0.0	-0.0	-0.0	-0.0	-0.0	-0.0	92214.3125	19865.478515625	-6685.75146484375
0.6345000000000001	-0.0	-0.0	-0.0	4.462812423706055	39.66303253173828	-389.4035339355469	2.7981672286987305	-45.79103469848633	-416.0290222167969	-0.0	-0.0	-0.0	-0.0	-0.0	-0.0	92354.6796875	19664.96484375	-6579.80419921875
0.635	-0.0	-0.0	-0.0	4.4672532081604	39.30426788330078	-391.1867370605469	3.1861650943756104	-46.275634765625	-417.4156494140625	-0.0	-0.0	-0.0	-0.0	-0.0	-0.0	92440.9921875	19535.58984375	-6607.66845703125
0.6355000000000001	-0.0	-0.0	-0.0	4.588928699493408	39.480445861816406	-392.5637817382813	3.550828456878662	-46.06095504760742	-416.8681640625	-0.0	-0.0	-0.0	-0.0	-0.0	-0.0	92755.2421875	19208.20703125	-6578.556640625
0.636	-0.0	-0.0	-0.0	4.634771823883057	39.747989654541016	-392.7774353027344	3.812243938446045	-46.01790618896485	-417.7462158203125	-0.0	-0.0	-0.0	-0.0	-0.0	-0.0	92718.0078125	19191.515625	-6520.62158203125
0.6365000000000001	-0.0	-0.0	-0.0	4.811286926269531	40.11071014404297	-393.44244384765625	3.548431396484375	-45.92502975463867	-418.113525390625	-0.0	-0.0	-0.0	-0.0	-0.0	-0.0	93083.953125	19004.044921875	-6504.810546875
0.637	-0.0	-0.0	-0.0	4.859024524688721	39.88094711303711	-393.45025634765625	3.905473470687866	-46.19224548339844	-420.89794921875	-0.0	-0.0	-0.0	-0.0	-0.0	-0.0	93533.8671875	19027.3984375	-6490.1806640625
0.6375000000000001	-0.0	-0.0	-0.0	4.769930362701416	39.84506607055664	-394.1488037109375	3.991985321044922	-46.14702606201172	-423.7080078125	-0.0	-0.0	-0.0	-0.0	-0.0	-0.0	94251.4609375	18974.6484375	-6473.5146484375
0.638	-0.0	-0.0	-0.0	4.462335586547852	40.108680725097656	-393.5867919921875	4.260162353515625	-46.28056335449219	-424.0406188964844	-0.0	-0.0	-0.0	-0.0	-0.0	-0.0	94497.078125	18697.28515625	-6432.69921875
0.6385000000000001	-0.0	-0.0	-0.0	4.458759784698486	40.063236236572266	-394.5089721679688	3.861919641494751	-46.101932525634766	-425.8179626464844	-0.0	-0.0	-0.0	-0.0	-0.0	-0.0	94781.71875	18878.646484375	-6432.89990234375
0.639	-0.0	-0.0	-0.0	4.413387775421143	39.977516174316406	-393.95550537109375	3.461643695831299	-45.93685531616211	-426.3292846679688	-0.0	-0.0	-0.0	-0.0	-0.0	-0.0	95133.875	18506.34765625	-6549.80517578125
0.6395000000000001	-0.0	-0.0	-0.0	4.102072715759277	40.02277374267578	-395.2083740234375	3.195434093475342	-46.36153793334961	-427.5325317382813	-0.0	-0.0	-0.0	-0.0	-0.0	-0.0	95227.03125	18755.57421875	-6534.357421875
0.64	-0.0	-0.0	-0.0	4.732888698577881	40.19623565673828	-395.0473937988281	3.0161666870117188	-46.19043731689453	-427.0338134765625	-0.0	-0.0	-0.0	-0.0	-0.0	-0.0	95248.1796875	18306.26171875	-6668.86083984375
0.6405	-0.0	-0.0	-0.0	4.815867900848389	39.84278869628906	-394.1606750488281	2.7048110961914062	-46.01214599609375	-425.9854736328125	-0.0	-0.0	-0.0	-0.0	-0.0	-0.0	95271.25	18173.673828125	-6699.875
0.641	-0.0	-0.0	-0.0	4.549736022949219	39.62343597412109	-394.5132751464844	2.969324111938477	-45.88394165039063	-425.2536010742188	-0.0	-0.0	-0.0	-0.0	-0.0	-0.0	95264.8828125	18216.70703125	-6669.951171875
